<svg xmlns="http://www.w3.org/2000/svg" xmlns:xlink="http://www.w3.org/1999/xlink" width="19" height="18" viewBox="0 0 19 18"><defs><path id="a" d="M701.09 2907.66l-3.17-5.55a.21.21 0 0 0-.38.01 6.6 6.6 0 0 1-4.37 3.37.23.23 0 0 0-.14.33l2.8 4.92c.28.48.99.41 1.18-.11l.87-2.46 2.53.47c.54.1.95-.49.68-.98z"/><path id="b" d="M690.01 2905.49a6.61 6.61 0 0 1-4.38-3.37.2.2 0 0 0-.37-.01l-3.17 5.55a.66.66 0 0 0 .68.98l2.53-.47.87 2.46c.19.52.9.59 1.17.11l2.81-4.92a.23.23 0 0 0-.14-.33z"/><path id="c" d="M686.4 2900.99c-.7-1.8-.48-3.83.6-5.43a5.73 5.73 0 0 1 9.54 0 5.92 5.92 0 0 1 .59 5.43 5.75 5.75 0 0 1-10.73 0zm8.18-3.42l-1.54-.23-.69-1.41a.64.64 0 0 0-1.16 0l-.69 1.41-1.54.23a.66.66 0 0 0-.36 1.12l1.11 1.1-.26 1.55c-.09.54.47.95.94.7l1.38-.74 1.38.74c.47.25 1.03-.16.94-.7l-.27-1.55 1.12-1.1a.66.66 0 0 0-.36-1.12z"/></defs><g transform="translate(-682 -2893)"><use fill="#3cc33d" xlink:href="#a"/></g><g transform="translate(-682 -2893)"><use fill="#3cc33d" xlink:href="#b"/></g><g transform="translate(-682 -2893)"><use fill="#3cc33d" xlink:href="#c"/></g></svg>