<svg xmlns="http://www.w3.org/2000/svg" xmlns:xlink="http://www.w3.org/1999/xlink" width="14" height="18" viewBox="0 0 14 18"><defs><path id="a" d="M746 2905.16a5.9 5.9 0 0 1-5.92 5.84h-2.16a5.9 5.9 0 0 1-5.92-5.84c0-.29.24-.52.54-.52h1.08c2 0 3.77.98 4.84 2.47v-2.5a5.85 5.85 0 0 1-5.38-5.77A5.9 5.9 0 0 1 739 2893a5.9 5.9 0 0 1 5.92 5.84c0 3.02-2.37 5.5-5.38 5.77v2.5a5.95 5.95 0 0 1 4.84-2.47h1.08c.3 0 .54.23.54.52zm-6.46-3.16v-.62a1.57 1.57 0 0 0 1.08-1.49 1.6 1.6 0 0 0-1.62-1.58.54.54 0 0 1-.54-.53c0-.49.6-.69.92-.37.21.2.55.2.76 0a.53.53 0 0 0 0-.75 1.72 1.72 0 0 0-.6-.35v-.64a.54.54 0 0 0-.54-.53c-.3 0-.54.24-.54.53v.64c-.71.24-1.08.84-1.08 1.47 0 .88.73 1.58 1.62 1.58.3 0 .54.24.54.53 0 .49-.6.69-.92.37a.56.56 0 0 0-.76 0 .53.53 0 0 0 0 .75c.17.17.38.29.6.37v.62c0 .29.24.53.54.53.3 0 .54-.24.54-.53z"/></defs><g transform="translate(-732 -2893)"><use fill="#3cc33d" xlink:href="#a"/></g></svg>