<svg xmlns="http://www.w3.org/2000/svg" xmlns:xlink="http://www.w3.org/1999/xlink" width="15" height="18" viewBox="0 0 15 18"><defs><path id="a" d="M591.06 2893H602v18h-15v-13.82z"/><path id="b" d="M596 2906.75a1.75 1.75 0 1 1 3.5 0 1.75 1.75 0 0 1-3.5 0z"/><path id="c" d="M589 2902.5c0-.28.22-.5.5-.5h10a.5.5 0 0 1 0 1h-10a.5.5 0 0 1-.5-.5z"/><path id="d" d="M589 2905.5c0-.28.22-.5.5-.5h4a.5.5 0 0 1 0 1h-4a.5.5 0 0 1-.5-.5z"/><path id="e" d="M589 2908.5c0-.28.22-.5.5-.5h4a.5.5 0 0 1 0 1h-4a.5.5 0 0 1-.5-.5z"/><path id="f" d="M589 2899.5c0-.28.22-.5.5-.5h10a.5.5 0 0 1 0 1h-10a.5.5 0 0 1-.5-.5z"/><path id="g" d="M591 2896.5c0-.28.22-.5.5-.5h8a.5.5 0 0 1 0 1h-8a.5.5 0 0 1-.5-.5z"/></defs><g transform="translate(-587 -2893)"><use fill="#3cc33d" xlink:href="#a"/></g><g transform="translate(-587 -2893)"><use fill="#3cc33d" xlink:href="#b"/><use fill="#fff" fill-opacity="0" stroke="#fff" stroke-miterlimit="50" xlink:href="#b"/></g><g transform="translate(-587 -2893)"><use fill="#fff" xlink:href="#c"/></g><g transform="translate(-587 -2893)"><use fill="#fff" xlink:href="#d"/></g><g transform="translate(-587 -2893)"><use fill="#fff" xlink:href="#e"/></g><g transform="translate(-587 -2893)"><use fill="#fff" xlink:href="#f"/></g><g transform="translate(-587 -2893)"><use fill="#fff" xlink:href="#g"/></g></svg>