<svg xmlns="http://www.w3.org/2000/svg" xmlns:xlink="http://www.w3.org/1999/xlink" width="15" height="18" viewBox="0 0 15 18"><defs><path id="a" d="M642.67 2901.8c2.02 0 3.66-1.97 3.66-4.4 0-2.43-.53-4.4-3.66-4.4s-3.67 1.97-3.67 4.4c0 2.43 1.64 4.4 3.67 4.4z"/><path id="b" d="M636 2908.1c0-.19 0-.05 0 0z"/><path id="c" d="M650 2909.13c0-.04 0-.27 0 0z"/><path id="d" d="M649.85 2908.21c-.07-4.24-.63-5.45-4.92-6.21 0 0-.6.76-2 .76-1.41 0-2.01-.76-2.01-.76-4.24.76-4.83 1.94-4.91 6.07l-.01.31v.45s1.02 2.03 6.93 2.03c5.9 0 6.92-2.03 6.92-2.03v-.33-.29z"/></defs><g transform="translate(-636 -2893)"><use fill="#3cc33d" xlink:href="#a"/></g><g transform="translate(-636 -2893)"><use fill="#3cc33d" xlink:href="#b"/></g><g transform="translate(-636 -2893)"><use fill="#3cc33d" xlink:href="#c"/></g><g transform="translate(-636 -2893)"><use fill="#3cc33d" xlink:href="#d"/></g></svg>